<mxfile host="app.diagrams.net" modified="2023-03-27T14:21:33.210Z" agent="Mozilla/5.0 (X11; Linux x86_64; rv:109.0) Gecko/20100101 Firefox/113.0" etag="nXf5rclu6vtzA_9wPsCH" version="21.1.1" type="device">
  <diagram name="Page-1" id="i2mqyHP1Hj3E1FknP1Xp">
    <mxGraphModel dx="11851" dy="4000" grid="1" gridSize="10" guides="1" tooltips="1" connect="1" arrows="1" fold="1" page="1" pageScale="1" pageWidth="4681" pageHeight="3300" math="0" shadow="0">
      <root>
        <mxCell id="0" />
        <mxCell id="1" parent="0" />
        <mxCell id="UBPbaVSDeuR6Y1h6aldy-97" value="" style="group;aspect=fixed;" parent="1" vertex="1" connectable="0">
          <mxGeometry x="1590.001483507769" y="1910.0010938145579" width="760" height="882.6" as="geometry" />
        </mxCell>
        <mxCell id="UBPbaVSDeuR6Y1h6aldy-98" value="" style="group;rotation=15;" parent="UBPbaVSDeuR6Y1h6aldy-97" vertex="1" connectable="0">
          <mxGeometry x="54.80311407043159" y="69.53381528542012" width="585.0054024217991" height="502.941283302866" as="geometry" />
        </mxCell>
        <mxCell id="UBPbaVSDeuR6Y1h6aldy-99" value="" style="triangle;whiteSpace=wrap;html=1;rotation=-75;fillColor=#608738;strokeWidth=2;perimeterSpacing=0;strokeColor=none;aspect=fixed;" parent="UBPbaVSDeuR6Y1h6aldy-98" vertex="1">
          <mxGeometry x="44.92264815371509" y="-50.2941283302866" width="560" height="672" as="geometry" />
        </mxCell>
        <mxCell id="UBPbaVSDeuR6Y1h6aldy-100" value="&lt;font style=&quot;font-size: 84px;&quot;&gt;Property&lt;br style=&quot;font-size: 84px;&quot;&gt;&lt;/font&gt;&lt;div style=&quot;font-size: 84px;&quot;&gt;&lt;font style=&quot;font-size: 84px;&quot;&gt;Testing&lt;/font&gt;&lt;/div&gt;" style="text;html=1;strokeColor=none;fillColor=none;align=center;verticalAlign=middle;whiteSpace=wrap;rounded=0;fontSize=84;rotation=15;" parent="UBPbaVSDeuR6Y1h6aldy-98" vertex="1">
          <mxGeometry x="215.19816425073614" y="330.46770379863324" width="179.69059261486035" height="122.94120258514502" as="geometry" />
        </mxCell>
        <mxCell id="4J0jgYgL8E8B34IHOkhn-9" value="" style="ellipse;whiteSpace=wrap;html=1;aspect=fixed;fontColor=#785596;strokeColor=default;fillColor=#785596;opacity=69;strokeWidth=4;" parent="UBPbaVSDeuR6Y1h6aldy-98" vertex="1">
          <mxGeometry x="515.1929172781279" y="216.56704944469493" width="69.81248514367124" height="69.81248514367124" as="geometry" />
        </mxCell>
        <mxCell id="UBPbaVSDeuR6Y1h6aldy-101" value="&lt;div style=&quot;font-size: 72px;&quot; align=&quot;left&quot;&gt;&lt;b style=&quot;font-size: 72px;&quot;&gt;+&lt;/b&gt; Easy to write&lt;/div&gt;&lt;div style=&quot;font-size: 72px;&quot; align=&quot;left&quot;&gt;&lt;b style=&quot;font-size: 72px;&quot;&gt;+&lt;/b&gt; Widely used&lt;/div&gt;&lt;div style=&quot;font-size: 72px;&quot; align=&quot;left&quot;&gt;&lt;b style=&quot;font-size: 72px;&quot;&gt;-&lt;/b&gt; No guarantees&lt;br style=&quot;font-size: 72px;&quot;&gt;&lt;/div&gt;" style="text;html=1;strokeColor=none;fillColor=none;align=left;verticalAlign=middle;whiteSpace=wrap;rounded=0;fontSize=72;rotation=15;" parent="UBPbaVSDeuR6Y1h6aldy-97" vertex="1">
          <mxGeometry y="647.89" width="520" height="234.71" as="geometry" />
        </mxCell>
        <mxCell id="UBPbaVSDeuR6Y1h6aldy-104" value="" style="group;rotation=-5;" parent="1" vertex="1" connectable="0">
          <mxGeometry x="110.00278433826952" y="1659.999174688114" width="1149.9972156617305" height="884.9816506237726" as="geometry" />
        </mxCell>
        <mxCell id="UBPbaVSDeuR6Y1h6aldy-105" value="" style="group;rotation=-10;" parent="UBPbaVSDeuR6Y1h6aldy-104" vertex="1" connectable="0">
          <mxGeometry x="473" y="287" width="540" height="450" as="geometry" />
        </mxCell>
        <mxCell id="UBPbaVSDeuR6Y1h6aldy-106" value="" style="triangle;whiteSpace=wrap;html=1;rotation=-100;fillColor=#3BA0D3;strokeWidth=2;perimeterSpacing=0;strokeColor=none;aspect=fixed;" parent="UBPbaVSDeuR6Y1h6aldy-105" vertex="1">
          <mxGeometry x="45" y="-45" width="560" height="672" as="geometry" />
        </mxCell>
        <mxCell id="UBPbaVSDeuR6Y1h6aldy-107" value="&lt;div style=&quot;font-size: 84px;&quot;&gt;&lt;font style=&quot;font-size: 84px;&quot;&gt;Model&lt;br style=&quot;font-size: 84px;&quot;&gt;Checking&lt;/font&gt;&lt;/div&gt;" style="text;html=1;strokeColor=none;fillColor=none;align=center;verticalAlign=middle;whiteSpace=wrap;rounded=0;fontSize=84;rotation=-10;" parent="UBPbaVSDeuR6Y1h6aldy-105" vertex="1">
          <mxGeometry x="216" y="323" width="260" height="150" as="geometry" />
        </mxCell>
        <mxCell id="UBPbaVSDeuR6Y1h6aldy-108" value="&lt;font style=&quot;font-size: 72px;&quot;&gt;&lt;b style=&quot;font-size: 72px;&quot;&gt;+&lt;/b&gt; Exhaustive search&lt;/font&gt;&lt;div style=&quot;font-size: 72px;&quot;&gt;&lt;font style=&quot;font-size: 72px;&quot;&gt;&lt;b style=&quot;font-size: 72px;&quot;&gt;+&lt;/b&gt; Counterexample generation&lt;br style=&quot;font-size: 72px;&quot;&gt;&lt;b style=&quot;font-size: 72px;&quot;&gt;-&lt;/b&gt; Model completely detached from implementation&lt;/font&gt;&lt;/div&gt;" style="text;html=1;strokeColor=none;fillColor=none;align=left;verticalAlign=middle;whiteSpace=wrap;rounded=0;fontSize=72;rotation=20;" parent="UBPbaVSDeuR6Y1h6aldy-104" vertex="1">
          <mxGeometry x="-9.1" y="144.87" width="652.92" height="720" as="geometry" />
        </mxCell>
        <mxCell id="UBPbaVSDeuR6Y1h6aldy-112" value="&lt;div style=&quot;font-size: 72px;&quot; align=&quot;left&quot;&gt;&lt;font style=&quot;font-size: 72px;&quot;&gt;&lt;b style=&quot;font-size: 72px;&quot;&gt;+&lt;/b&gt; Numerous compile-time checks&lt;br style=&quot;font-size: 72px;&quot;&gt;&lt;font style=&quot;font-size: 72px;&quot;&gt;&lt;b style=&quot;font-size: 72px;&quot;&gt;+&lt;/b&gt; Programming language support&lt;br style=&quot;font-size: 72px;&quot;&gt;&lt;/font&gt;&lt;b style=&quot;font-size: 72px;&quot;&gt;-&lt;/b&gt; &lt;font style=&quot;font-size: 72px;&quot;&gt;Guarantees only as strong as the underlying theory&lt;/font&gt;&lt;/font&gt;&lt;/div&gt;" style="text;html=1;strokeColor=none;fillColor=none;align=left;verticalAlign=middle;whiteSpace=wrap;rounded=0;fontSize=72;rotation=-20;" parent="1" vertex="1">
          <mxGeometry x="1750" y="700" width="760" height="705.63" as="geometry" />
        </mxCell>
        <mxCell id="B-UHLOG65UjDEOoMh8zh-63" value="" style="group;aspect=fixed;" parent="1" vertex="1" connectable="0">
          <mxGeometry x="1050" y="1520" width="803.43" height="660" as="geometry" />
        </mxCell>
        <mxCell id="B-UHLOG65UjDEOoMh8zh-53" value="" style="ellipse;shape=cloud;whiteSpace=wrap;html=1;strokeWidth=5;fillColor=#D68721;opacity=69;fontSize=64;rotation=-15;" parent="B-UHLOG65UjDEOoMh8zh-63" vertex="1">
          <mxGeometry x="52.28261410107758" y="81.9897695311426" width="698.8647717978448" height="496.02046093771486" as="geometry" />
        </mxCell>
        <mxCell id="B-UHLOG65UjDEOoMh8zh-55" value="Specification" style="text;html=1;strokeColor=none;fillColor=none;align=center;verticalAlign=middle;whiteSpace=wrap;rounded=0;fontSize=84;" parent="B-UHLOG65UjDEOoMh8zh-63" vertex="1">
          <mxGeometry x="159.9961906550774" y="295.20453482974244" width="544.8776186898451" height="106.60738264929991" as="geometry" />
        </mxCell>
        <mxCell id="B-UHLOG65UjDEOoMh8zh-78" value="" style="endArrow=classic;html=1;rounded=0;exitX=0.13;exitY=0.77;exitDx=0;exitDy=0;entryX=0.5;entryY=1;entryDx=0;entryDy=0;strokeWidth=11;exitPerimeter=0;" parent="1" source="B-UHLOG65UjDEOoMh8zh-53" target="UBPbaVSDeuR6Y1h6aldy-106" edge="1">
          <mxGeometry relative="1" as="geometry">
            <mxPoint x="850" y="1805" as="sourcePoint" />
            <mxPoint x="950" y="1805" as="targetPoint" />
          </mxGeometry>
        </mxCell>
        <mxCell id="B-UHLOG65UjDEOoMh8zh-79" value="Formal model" style="edgeLabel;resizable=0;html=1;align=center;verticalAlign=middle;fontSize=72;rotation=48;textOpacity=90;labelBackgroundColor=#F0F0F0;" parent="B-UHLOG65UjDEOoMh8zh-78" connectable="0" vertex="1">
          <mxGeometry relative="1" as="geometry" />
        </mxCell>
        <mxCell id="B-UHLOG65UjDEOoMh8zh-80" value="" style="endArrow=classic;html=1;rounded=0;exitX=0.625;exitY=0.2;exitDx=0;exitDy=0;strokeWidth=11;exitPerimeter=0;" parent="1" source="B-UHLOG65UjDEOoMh8zh-53" target="UBPbaVSDeuR6Y1h6aldy-110" edge="1">
          <mxGeometry relative="1" as="geometry">
            <mxPoint x="1139" y="1924" as="sourcePoint" />
            <mxPoint x="1016" y="2016" as="targetPoint" />
          </mxGeometry>
        </mxCell>
        <mxCell id="B-UHLOG65UjDEOoMh8zh-81" value="Type selection" style="edgeLabel;resizable=0;html=1;align=center;verticalAlign=middle;fontSize=72;rotation=10;textOpacity=90;labelBackgroundColor=#F0F0F0;" parent="B-UHLOG65UjDEOoMh8zh-80" connectable="0" vertex="1">
          <mxGeometry relative="1" as="geometry">
            <mxPoint x="-6" y="-3" as="offset" />
          </mxGeometry>
        </mxCell>
        <mxCell id="B-UHLOG65UjDEOoMh8zh-82" value="" style="endArrow=classic;html=1;rounded=0;exitX=0.747;exitY=0.878;exitDx=0;exitDy=0;strokeWidth=11;exitPerimeter=0;" parent="1" source="B-UHLOG65UjDEOoMh8zh-53" target="UBPbaVSDeuR6Y1h6aldy-99" edge="1">
          <mxGeometry relative="1" as="geometry">
            <mxPoint x="1408" y="1723" as="sourcePoint" />
            <mxPoint x="1446" y="1553" as="targetPoint" />
          </mxGeometry>
        </mxCell>
        <mxCell id="B-UHLOG65UjDEOoMh8zh-83" value="Test writing" style="edgeLabel;resizable=0;html=1;align=center;verticalAlign=middle;fontSize=72;rotation=-43;textOpacity=90;labelBackgroundColor=#F0F0F0;" parent="B-UHLOG65UjDEOoMh8zh-82" connectable="0" vertex="1">
          <mxGeometry relative="1" as="geometry">
            <mxPoint x="-11" y="-11" as="offset" />
          </mxGeometry>
        </mxCell>
        <mxCell id="UBPbaVSDeuR6Y1h6aldy-109" value="" style="group;rotation=0;aspect=fixed;" parent="1" vertex="1" connectable="0">
          <mxGeometry x="1190" y="840" width="760" height="669.03" as="geometry" />
        </mxCell>
        <mxCell id="UBPbaVSDeuR6Y1h6aldy-110" value="" style="triangle;whiteSpace=wrap;html=1;rotation=-80;fillColor=#C22A22;strokeWidth=2;perimeterSpacing=0;strokeColor=none;aspect=fixed;" parent="UBPbaVSDeuR6Y1h6aldy-109" vertex="1">
          <mxGeometry x="99.68228459275909" y="-2.492040425954203" width="560" height="672" as="geometry" />
        </mxCell>
        <mxCell id="UBPbaVSDeuR6Y1h6aldy-111" value="&lt;font style=&quot;font-size: 84px;&quot;&gt;Type&lt;br style=&quot;font-size: 84px;&quot;&gt;&lt;/font&gt;&lt;div style=&quot;font-size: 84px;&quot;&gt;&lt;font style=&quot;font-size: 84px;&quot;&gt;Systems&lt;/font&gt;&lt;/div&gt;" style="text;html=1;strokeColor=none;fillColor=none;align=center;verticalAlign=middle;whiteSpace=wrap;rounded=0;fontSize=84;rotation=10;" parent="UBPbaVSDeuR6Y1h6aldy-109" vertex="1">
          <mxGeometry x="237.41996849858316" y="339.11576069847393" width="270" height="170" as="geometry" />
        </mxCell>
        <mxCell id="B-UHLOG65UjDEOoMh8zh-108" value="" style="endArrow=classic;html=1;rounded=0;strokeWidth=17;exitX=0.1;exitY=0.5;exitDx=0;exitDy=0;exitPerimeter=0;" parent="1" edge="1">
          <mxGeometry width="50" height="50" relative="1" as="geometry">
            <mxPoint x="2894" y="1758" as="sourcePoint" />
            <mxPoint x="3093" y="1758" as="targetPoint" />
          </mxGeometry>
        </mxCell>
        <mxCell id="B-UHLOG65UjDEOoMh8zh-117" value="" style="curved=1;endArrow=none;html=1;rounded=0;endFill=0;strokeWidth=17;" parent="1" edge="1">
          <mxGeometry width="50" height="50" relative="1" as="geometry">
            <mxPoint x="2533" y="830" as="sourcePoint" />
            <mxPoint x="2894" y="1758" as="targetPoint" />
            <Array as="points">
              <mxPoint x="2733" y="850" />
              <mxPoint x="2733" y="1688" />
              <mxPoint x="2814" y="1748" />
            </Array>
          </mxGeometry>
        </mxCell>
        <mxCell id="B-UHLOG65UjDEOoMh8zh-120" value="" style="curved=1;endArrow=none;html=1;rounded=0;endFill=0;strokeWidth=17;" parent="1" edge="1">
          <mxGeometry width="50" height="50" relative="1" as="geometry">
            <mxPoint x="2553" y="2750" as="sourcePoint" />
            <mxPoint x="2897" y="1758" as="targetPoint" />
            <Array as="points">
              <mxPoint x="2773" y="2750" />
              <mxPoint x="2733" y="1814" />
              <mxPoint x="2817" y="1768" />
            </Array>
          </mxGeometry>
        </mxCell>
        <mxCell id="B-UHLOG65UjDEOoMh8zh-127" value="" style="group" parent="1" vertex="1" connectable="0">
          <mxGeometry x="3570" y="780" width="1500" height="1720" as="geometry" />
        </mxCell>
        <mxCell id="B-UHLOG65UjDEOoMh8zh-131" value="" style="ellipse;whiteSpace=wrap;html=1;aspect=fixed;fillColor=#D68721;opacity=69;strokeWidth=4;" parent="B-UHLOG65UjDEOoMh8zh-127" vertex="1">
          <mxGeometry x="-210" y="-220" width="1520" height="1520" as="geometry" />
        </mxCell>
        <mxCell id="B-UHLOG65UjDEOoMh8zh-90" value="" style="ellipse;whiteSpace=wrap;html=1;aspect=fixed;fillColor=#3BA0D3;strokeColor=none;opacity=69;" parent="B-UHLOG65UjDEOoMh8zh-127" vertex="1">
          <mxGeometry y="323.5999999999999" width="690" height="690" as="geometry" />
        </mxCell>
        <mxCell id="B-UHLOG65UjDEOoMh8zh-91" value="&lt;div style=&quot;font-size: 76px;&quot;&gt;Model&lt;br style=&quot;font-size: 76px;&quot;&gt;Checking&lt;/div&gt;" style="text;html=1;strokeColor=none;fillColor=none;align=center;verticalAlign=middle;whiteSpace=wrap;rounded=0;fontSize=76;" parent="B-UHLOG65UjDEOoMh8zh-127" vertex="1">
          <mxGeometry x="77.00124999999935" y="659.9963636363636" width="250" height="140" as="geometry" />
        </mxCell>
        <mxCell id="B-UHLOG65UjDEOoMh8zh-96" value="" style="ellipse;whiteSpace=wrap;html=1;aspect=fixed;fillColor=#608738;strokeColor=none;opacity=69;" parent="B-UHLOG65UjDEOoMh8zh-127" vertex="1">
          <mxGeometry x="370" y="365" width="690" height="690" as="geometry" />
        </mxCell>
        <mxCell id="B-UHLOG65UjDEOoMh8zh-93" value="" style="ellipse;whiteSpace=wrap;html=1;aspect=fixed;fillColor=#C22A22;fillStyle=auto;gradientColor=none;gradientDirection=north;strokeColor=none;opacity=69;" parent="B-UHLOG65UjDEOoMh8zh-127" vertex="1">
          <mxGeometry x="229" width="690" height="690" as="geometry" />
        </mxCell>
        <mxCell id="B-UHLOG65UjDEOoMh8zh-101" value="" style="group;aspect=fixed;fontSize=26;" parent="B-UHLOG65UjDEOoMh8zh-127" vertex="1" connectable="0">
          <mxGeometry x="360" y="529" width="370" height="90" as="geometry" />
        </mxCell>
        <mxCell id="B-UHLOG65UjDEOoMh8zh-103" value="&lt;div style=&quot;font-size: 76px;&quot;&gt;Correctness&lt;/div&gt;" style="text;html=1;strokeColor=none;fillColor=none;align=center;verticalAlign=middle;whiteSpace=wrap;rounded=0;fontSize=76;" parent="B-UHLOG65UjDEOoMh8zh-101" vertex="1">
          <mxGeometry x="11" y="-11" width="370" height="90" as="geometry" />
        </mxCell>
        <mxCell id="B-UHLOG65UjDEOoMh8zh-94" value="Type&lt;br style=&quot;font-size: 76px;&quot;&gt;&lt;div style=&quot;font-size: 76px;&quot;&gt;Systems&lt;/div&gt;" style="text;html=1;strokeColor=none;fillColor=none;align=center;verticalAlign=middle;whiteSpace=wrap;rounded=0;fontSize=76;" parent="B-UHLOG65UjDEOoMh8zh-127" vertex="1">
          <mxGeometry x="489.9974999999995" y="145.00000000000023" width="211.82" height="117.5" as="geometry" />
        </mxCell>
        <mxCell id="B-UHLOG65UjDEOoMh8zh-97" value="Property&lt;br style=&quot;font-size: 76px;&quot;&gt;&lt;div style=&quot;font-size: 76px;&quot;&gt;Testing&lt;/div&gt;" style="text;html=1;strokeColor=none;fillColor=none;align=center;verticalAlign=middle;whiteSpace=wrap;rounded=0;fontSize=76;" parent="B-UHLOG65UjDEOoMh8zh-127" vertex="1">
          <mxGeometry x="750" y="745" width="220" height="133.18" as="geometry" />
        </mxCell>
        <mxCell id="B-UHLOG65UjDEOoMh8zh-130" value="" style="ellipse;whiteSpace=wrap;html=1;aspect=fixed;fillColor=#D68721;opacity=69;strokeWidth=4;direction=south;" parent="B-UHLOG65UjDEOoMh8zh-127" vertex="1">
          <mxGeometry x="-50" y="1250" width="210" height="210" as="geometry" />
        </mxCell>
        <mxCell id="4J0jgYgL8E8B34IHOkhn-1" value="" style="group;aspect=fixed;" parent="1" vertex="1" connectable="0">
          <mxGeometry x="335.86" y="540" width="963.41" height="777.97" as="geometry" />
        </mxCell>
        <mxCell id="B-UHLOG65UjDEOoMh8zh-58" value="" style="ellipse;shape=cloud;whiteSpace=wrap;html=1;strokeWidth=5;fillColor=#785596;opacity=69;fontSize=64;rotation=-15;aspect=fixed;" parent="4J0jgYgL8E8B34IHOkhn-1" vertex="1">
          <mxGeometry x="129" y="138.65" width="705.42" height="500.67" as="geometry" />
        </mxCell>
        <mxCell id="B-UHLOG65UjDEOoMh8zh-66" value="" style="ellipse;whiteSpace=wrap;html=1;aspect=fixed;fontColor=#785596;strokeColor=default;fillColor=#785596;opacity=69;strokeWidth=4;" parent="4J0jgYgL8E8B34IHOkhn-1" vertex="1">
          <mxGeometry x="893.5975148563285" y="586.4219585446727" width="69.81248514367124" height="69.81248514367124" as="geometry" />
        </mxCell>
        <mxCell id="B-UHLOG65UjDEOoMh8zh-65" value="" style="ellipse;whiteSpace=wrap;html=1;aspect=fixed;fontColor=#785596;strokeColor=default;fillColor=#785596;opacity=69;strokeWidth=4;" parent="4J0jgYgL8E8B34IHOkhn-1" vertex="1">
          <mxGeometry x="744.972544568986" y="527.5718942485947" width="111.69997622987398" height="111.69997622987398" as="geometry" />
        </mxCell>
        <mxCell id="B-UHLOG65UjDEOoMh8zh-59" value="&lt;div style=&quot;font-size: 84px;&quot;&gt;Correctness&lt;/div&gt;" style="text;html=1;strokeColor=none;fillColor=none;align=center;verticalAlign=middle;whiteSpace=wrap;rounded=0;fontSize=84;" parent="4J0jgYgL8E8B34IHOkhn-1" vertex="1">
          <mxGeometry x="173.32814313204338" y="340.988850995558" width="642.2748633217755" height="125.66264466617552" as="geometry" />
        </mxCell>
        <mxCell id="4J0jgYgL8E8B34IHOkhn-12" value="" style="group" parent="1" vertex="1" connectable="0">
          <mxGeometry x="1919.996836153843" y="1480.001892877816" width="810.9663276923138" height="711.6999776006528" as="geometry" />
        </mxCell>
        <mxCell id="4J0jgYgL8E8B34IHOkhn-8" value="" style="ellipse;shape=cloud;whiteSpace=wrap;html=1;strokeWidth=5;fillColor=#785596;opacity=69;fontSize=64;rotation=-15;aspect=fixed;" parent="4J0jgYgL8E8B34IHOkhn-12" vertex="1">
          <mxGeometry x="52.773163846156876" y="82.7581071221839" width="705.42" height="500.67" as="geometry" />
        </mxCell>
        <mxCell id="4J0jgYgL8E8B34IHOkhn-11" value="&lt;div style=&quot;font-size: 84px;&quot;&gt;Correctness&lt;/div&gt;" style="text;html=1;strokeColor=none;fillColor=none;align=center;verticalAlign=middle;whiteSpace=wrap;rounded=0;fontSize=84;" parent="4J0jgYgL8E8B34IHOkhn-12" vertex="1">
          <mxGeometry x="97.10130697820023" y="285.0969581177419" width="642.2748633217755" height="125.66264466617552" as="geometry" />
        </mxCell>
        <mxCell id="4J0jgYgL8E8B34IHOkhn-10" value="" style="ellipse;whiteSpace=wrap;html=1;aspect=fixed;fontColor=#785596;strokeColor=default;fillColor=#785596;opacity=69;strokeWidth=4;" parent="4J0jgYgL8E8B34IHOkhn-12" vertex="1">
          <mxGeometry x="309.0057084151431" y="600.0000013707788" width="111.69997622987398" height="111.69997622987398" as="geometry" />
        </mxCell>
        <mxCell id="4J0jgYgL8E8B34IHOkhn-4" value="" style="ellipse;whiteSpace=wrap;html=1;aspect=fixed;fontColor=#785596;strokeColor=default;fillColor=#785596;opacity=69;strokeWidth=4;" parent="1" vertex="1">
          <mxGeometry x="782.6575148563285" y="2570.0019585446726" width="69.81248514367124" height="69.81248514367124" as="geometry" />
        </mxCell>
        <mxCell id="4J0jgYgL8E8B34IHOkhn-16" value="" style="group" parent="1" vertex="1" connectable="0">
          <mxGeometry x="820" y="2510" width="810.9663276923138" height="666.1862142443679" as="geometry" />
        </mxCell>
        <mxCell id="4J0jgYgL8E8B34IHOkhn-3" value="" style="ellipse;shape=cloud;whiteSpace=wrap;html=1;strokeWidth=5;fillColor=#785596;opacity=69;fontSize=64;rotation=-15;aspect=fixed;" parent="4J0jgYgL8E8B34IHOkhn-16" vertex="1">
          <mxGeometry x="52.773163846156876" y="82.7581071221839" width="705.42" height="500.67" as="geometry" />
        </mxCell>
        <mxCell id="4J0jgYgL8E8B34IHOkhn-6" value="&lt;div style=&quot;font-size: 84px;&quot;&gt;Correctness&lt;/div&gt;" style="text;html=1;strokeColor=none;fillColor=none;align=center;verticalAlign=middle;whiteSpace=wrap;rounded=0;fontSize=84;" parent="4J0jgYgL8E8B34IHOkhn-16" vertex="1">
          <mxGeometry x="97.10130697820023" y="285.0969581177419" width="642.2748633217755" height="125.66264466617552" as="geometry" />
        </mxCell>
        <mxCell id="4J0jgYgL8E8B34IHOkhn-5" value="" style="ellipse;whiteSpace=wrap;html=1;aspect=fixed;fontColor=#785596;strokeColor=default;fillColor=#785596;opacity=69;strokeWidth=4;" parent="4J0jgYgL8E8B34IHOkhn-16" vertex="1">
          <mxGeometry x="52.775708415142844" y="120.00000137077768" width="111.69997622987398" height="111.69997622987398" as="geometry" />
        </mxCell>
        <mxCell id="Qvp9QdVFzRyM0OTK_EBC-1" value="" style="group;aspect=fixed;" vertex="1" connectable="0" parent="1">
          <mxGeometry x="2766.57" y="2210" width="803.4316436763843" height="660" as="geometry" />
        </mxCell>
        <mxCell id="Qvp9QdVFzRyM0OTK_EBC-2" value="" style="ellipse;shape=cloud;whiteSpace=wrap;html=1;strokeWidth=5;fillColor=#D68721;opacity=69;fontSize=64;rotation=-15;" vertex="1" parent="Qvp9QdVFzRyM0OTK_EBC-1">
          <mxGeometry x="52.28261410107758" y="81.9897695311426" width="698.8647717978448" height="496.02046093771486" as="geometry" />
        </mxCell>
        <mxCell id="Qvp9QdVFzRyM0OTK_EBC-3" value="Specification" style="text;html=1;strokeColor=none;fillColor=none;align=center;verticalAlign=middle;whiteSpace=wrap;rounded=0;fontSize=84;" vertex="1" parent="Qvp9QdVFzRyM0OTK_EBC-1">
          <mxGeometry x="159.9961906550774" y="295.20453482974244" width="544.8776186898451" height="106.60738264929991" as="geometry" />
        </mxCell>
        <mxCell id="B-UHLOG65UjDEOoMh8zh-129" value="" style="ellipse;whiteSpace=wrap;html=1;aspect=fixed;fillColor=#D68721;opacity=69;strokeWidth=4;" parent="Qvp9QdVFzRyM0OTK_EBC-1" vertex="1">
          <mxGeometry x="683.4316436763843" y="50.0026618154825" width="90" height="90" as="geometry" />
        </mxCell>
      </root>
    </mxGraphModel>
  </diagram>
</mxfile>
